HIERARCHY
ROOT Hips
{
  OFFSET 5.72205e-005 65.662 3.42586
  CHANNELS 6 Xposition Yposition Zposition Zrotation Xrotation Yrotation
  JOINT Chest
  {
    OFFSET 0 8.7983 -4.7612
    CHANNELS 6 Xposition Yposition Zposition Zrotation Xrotation Yrotation
    JOINT Chest2
    {
      OFFSET 0 8.0291 0.4195
      CHANNELS 6 Xposition Yposition Zposition Zrotation Xrotation Yrotation
      JOINT Chest3
      {
        OFFSET 0 9.9351 -2.2114
        CHANNELS 6 Xposition Yposition Zposition Zrotation Xrotation Yrotation
        JOINT Neck
        {
          OFFSET 0 22.3885 -0.4656
          CHANNELS 6 Xposition Yposition Zposition Zrotation Xrotation Yrotation
          JOINT Head
          {
            OFFSET -0.0001 12.643 3.4389
            CHANNELS 6 Xposition Yposition Zposition Zrotation Xrotation Yrotation
            End Site
            {
              OFFSET 0.0001 17.6655 0.5274
            }
          }
        }
        JOINT LeftCollar
        {
          OFFSET 2.2603 21.606 7.4023
          CHANNELS 6 Xposition Yposition Zposition Zrotation Xrotation Yrotation
          JOINT LeftShoulder
          {
            OFFSET 13.5163 -1.1332 -5.0146
            CHANNELS 6 Xposition Yposition Zposition Zrotation Xrotation Yrotation
            JOINT LeftElbow
            {
              OFFSET -0.0995 -28.05 -0.2431
              CHANNELS 6 Xposition Yposition Zposition Zrotation Xrotation Yrotation
              JOINT LeftWrist
              {
                OFFSET 0.0679 -23.3996 -0.1402
                CHANNELS 6 Xposition Yposition Zposition Zrotation Xrotation Yrotation
                JOINT LeftFinger1
                {
                  OFFSET 0.7932 -9.069 2.5189
                  CHANNELS 6 Xposition Yposition Zposition Zrotation Xrotation Yrotation
                  JOINT LeftFinger11
                  {
                    OFFSET -0.8272 -3.3923 0.5977
                    CHANNELS 6 Xposition Yposition Zposition Zrotation Xrotation Yrotation
                    JOINT LeftFinger12
                    {
                      OFFSET -0.5649 -2.3158 0.4082
                      CHANNELS 6 Xposition Yposition Zposition Zrotation Xrotation Yrotation
                      End Site
                      {
                        OFFSET -0.4919 -1.6479 0.2673
                      }
                    }
                  }
                }
                JOINT LeftFinger2
                {
                  OFFSET 0.9159 -9.2044 0.2193
                  CHANNELS 6 Xposition Yposition Zposition Zrotation Xrotation Yrotation
                  JOINT LeftFinger21
                  {
                    OFFSET 0.0117 -4.1944 -0.0248
                    CHANNELS 6 Xposition Yposition Zposition Zrotation Xrotation Yrotation
                    JOINT LeftFinger22
                    {
                      OFFSET 0.0071 -2.3249 -0.0142
                      CHANNELS 6 Xposition Yposition Zposition Zrotation Xrotation Yrotation
                      End Site
                      {
                        OFFSET -0.1475 -2.0882 0.0028
                      }
                    }
                  }
                }
                JOINT LeftFinger3
                {
                  OFFSET 0.6113 -8.7231 -2.0637
                  CHANNELS 6 Xposition Yposition Zposition Zrotation Xrotation Yrotation
                  JOINT LeftFinger31
                  {
                    OFFSET -0.1927 -3.8059 -0.2383
                    CHANNELS 6 Xposition Yposition Zposition Zrotation Xrotation Yrotation
                    JOINT LeftFinger32
                    {
                      OFFSET -0.1091 -2.1688 -0.1362
                      CHANNELS 6 Xposition Yposition Zposition Zrotation Xrotation Yrotation
                      End Site
                      {
                        OFFSET -0.2358 -1.9176 -0.0906
                      }
                    }
                  }
                }
                JOINT LeftFinger4
                {
                  OFFSET -0.6151 -8.0947 -3.5641
                  CHANNELS 6 Xposition Yposition Zposition Zrotation Xrotation Yrotation
                  JOINT LeftFinger41
                  {
                    OFFSET -0.4882 -2.341 -0.6462
                    CHANNELS 6 Xposition Yposition Zposition Zrotation Xrotation Yrotation
                    JOINT LeftFinger42
                    {
                      OFFSET -0.3575 -1.7167 -0.4742
                      CHANNELS 6 Xposition Yposition Zposition Zrotation Xrotation Yrotation
                      End Site
                      {
                        OFFSET -0.4187 -1.5237 -0.3496
                      }
                    }
                  }
                }
                JOINT LeftFinger0
                {
                  OFFSET -1.42 -1.8761 1.4223
                  CHANNELS 6 Xposition Yposition Zposition Zrotation Xrotation Yrotation
                  JOINT LeftFinger01
                  {
                    OFFSET -1.1471 -3.4929 2.6334
                    CHANNELS 6 Xposition Yposition Zposition Zrotation Xrotation Yrotation
                    JOINT LeftFinger02
                    {
                      OFFSET -0.823 -2.3 1.6571
                      CHANNELS 6 Xposition Yposition Zposition Zrotation Xrotation Yrotation
                      End Site
                      {
                        OFFSET -0.5822 -1.6914 1.1582
                      }
                    }
                  }
                }
              }
            }
          }
        }
        JOINT RightCollar
        {
          OFFSET -2.2603 21.606 7.4023
          CHANNELS 6 Xposition Yposition Zposition Zrotation Xrotation Yrotation
          JOINT RightShoulder
          {
            OFFSET -13.5187 -1.1334 -5.0155
            CHANNELS 6 Xposition Yposition Zposition Zrotation Xrotation Yrotation
            JOINT RightElbow
            {
              OFFSET 0.0994 -28.0499 -0.2431
              CHANNELS 6 Xposition Yposition Zposition Zrotation Xrotation Yrotation
              JOINT RightWrist
              {
                OFFSET -0.0679 -23.3996 -0.1402
                CHANNELS 6 Xposition Yposition Zposition Zrotation Xrotation Yrotation
                JOINT RightFinger1
                {
                  OFFSET -0.7932 -9.0691 2.5189
                  CHANNELS 6 Xposition Yposition Zposition Zrotation Xrotation Yrotation
                  JOINT RightFinger11
                  {
                    OFFSET 0.8272 -3.3923 0.5977
                    CHANNELS 6 Xposition Yposition Zposition Zrotation Xrotation Yrotation
                    JOINT RightFinger12
                    {
                      OFFSET 0.565 -2.3158 0.4082
                      CHANNELS 6 Xposition Yposition Zposition Zrotation Xrotation Yrotation
                      End Site
                      {
                        OFFSET 0.4919 -1.6479 0.2673
                      }
                    }
                  }
                }
                JOINT RightFinger2
                {
                  OFFSET -0.916 -9.2044 0.2193
                  CHANNELS 6 Xposition Yposition Zposition Zrotation Xrotation Yrotation
                  JOINT RightFinger21
                  {
                    OFFSET -0.0117 -4.1944 -0.0248
                    CHANNELS 6 Xposition Yposition Zposition Zrotation Xrotation Yrotation
                    JOINT RightFinger22
                    {
                      OFFSET -0.0071 -2.3249 -0.0142
                      CHANNELS 6 Xposition Yposition Zposition Zrotation Xrotation Yrotation
                      End Site
                      {
                        OFFSET 0.1475 -2.0882 0.0028
                      }
                    }
                  }
                }
                JOINT RightFinger3
                {
                  OFFSET -0.6113 -8.7231 -2.0637
                  CHANNELS 6 Xposition Yposition Zposition Zrotation Xrotation Yrotation
                  JOINT RightFinger31
                  {
                    OFFSET 0.1927 -3.8059 -0.2383
                    CHANNELS 6 Xposition Yposition Zposition Zrotation Xrotation Yrotation
                    JOINT RightFinger32
                    {
                      OFFSET 0.1091 -2.1688 -0.1362
                      CHANNELS 6 Xposition Yposition Zposition Zrotation Xrotation Yrotation
                      End Site
                      {
                        OFFSET 0.2358 -1.9176 -0.0906
                      }
                    }
                  }
                }
                JOINT RightFinger4
                {
                  OFFSET 0.6151 -8.0947 -3.564
                  CHANNELS 6 Xposition Yposition Zposition Zrotation Xrotation Yrotation
                  JOINT RightFinger41
                  {
                    OFFSET 0.4882 -2.341 -0.6462
                    CHANNELS 6 Xposition Yposition Zposition Zrotation Xrotation Yrotation
                    JOINT RightFinger42
                    {
                      OFFSET 0.3574 -1.7166 -0.4742
                      CHANNELS 6 Xposition Yposition Zposition Zrotation Xrotation Yrotation
                      End Site
                      {
                        OFFSET 0.4187 -1.5237 -0.3496
                      }
                    }
                  }
                }
                JOINT RightFinger0
                {
                  OFFSET 1.4199 -1.8761 1.4221
                  CHANNELS 6 Xposition Yposition Zposition Zrotation Xrotation Yrotation
                  JOINT RightFinger01
                  {
                    OFFSET 1.1472 -3.4929 2.6336
                    CHANNELS 6 Xposition Yposition Zposition Zrotation Xrotation Yrotation
                    JOINT RightFinger02
                    {
                      OFFSET 0.8229 -2.3 1.6571
                      CHANNELS 6 Xposition Yposition Zposition Zrotation Xrotation Yrotation
                      End Site
                      {
                        OFFSET 0.5822 -1.6914 1.1582
                      }
                    }
                  }
                }
              }
            }
          }
        }
      }
    }
  }
  JOINT RightHip
  {
    OFFSET -9.412 3.9771 -0.7758
    CHANNELS 6 Xposition Yposition Zposition Zrotation Xrotation Yrotation
    JOINT RightKnee
    {
      OFFSET -0.7531 -40.938 0
      CHANNELS 6 Xposition Yposition Zposition Zrotation Xrotation Yrotation
      JOINT RightAnkle
      {
        OFFSET 0 -40.1986 0
        CHANNELS 6 Xposition Yposition Zposition Zrotation Xrotation Yrotation
        JOINT RightToe
        {
          OFFSET 0 -4.4182 9.239
          CHANNELS 6 Xposition Yposition Zposition Zrotation Xrotation Yrotation
          End Site
          {
            OFFSET 0 0 6.1981
          }
        }
      }
    }
  }
  JOINT LeftHip
  {
    OFFSET 9.4119 3.9773 -0.7758
    CHANNELS 6 Xposition Yposition Zposition Zrotation Xrotation Yrotation
    JOINT LeftKnee
    {
      OFFSET 0.7532 -40.9383 0
      CHANNELS 6 Xposition Yposition Zposition Zrotation Xrotation Yrotation
      JOINT LeftAnkle
      {
        OFFSET 0 -40.1986 0
        CHANNELS 6 Xposition Yposition Zposition Zrotation Xrotation Yrotation
        JOINT LeftToe
        {
          OFFSET 0 -4.4182 9.239
          CHANNELS 6 Xposition Yposition Zposition Zrotation Xrotation Yrotation
          End Site
          {
            OFFSET 0 0 6.1981
          }
        }
      }
    }
  }
}
MOTION
Frames:	4
Frame Time:	0.0333333
-6.94973 12.9748 37.4387 180 84.5029 -180 8.88179e-016 8.7983 -4.7612 -0.127066 -1.95729 -0.41649 0 8.0291 0.4195 -0.26861 -3.91362 -0.838057 0 9.9351 -2.2114 -0.268611 -3.91361 -0.83806 0 22.3885 -0.4656 1.42777e-005 -36.2274 1.73507e-005 -0.0001 12.643 3.4389 4.40704e-007 -15.0017 -7.1701e-008 2.2603 21.606 7.4023 -0.759408 -13.9665 -38.8625 13.5163 -1.1332 -5.0146 95.1437 -5.92778 9.64918 -0.0995 -28.05 -0.2431 40.8323 -40.7424 24.0424 0.0679 -23.3996 -0.1402 14.3395 -0.943878 11.6945 0.7932 -9.069 2.5189 -9.54166e-015 7.95139e-016 -0 -0.8272 -3.3923 0.5977 -6.36111e-015 7.95139e-016 -5.96354e-016 -0.5649 -2.3158 0.4082 -3.18055e-015 3.97569e-016 2.28602e-015 0.9159 -9.2044 0.2193 -9.54166e-015 7.95139e-016 -0 0.0117 -4.1944 -0.0248 -0.0127962 0.0023095 7.1296e-005 0.0071 -2.3249 -0.0142 -3.18055e-015 7.95139e-016 2.78299e-015 0.6113 -8.7231 -2.0637 -9.54166e-015 7.95139e-016 -0 -0.1927 -3.8059 -0.2383 -0.0160172 0.00297665 0.00084877 -0.1091 -2.1688 -0.1362 7.49694e-007 -4.79404e-006 -7.43654e-006 -0.6151 -8.0947 -3.5641 -9.54166e-015 7.95139e-016 -0 -0.4882 -2.341 -0.6462 -0.012607 0.00311787 0.00282093 -0.3575 -1.7167 -0.4742 1.27222e-014 3.97569e-016 1.39149e-015 -1.42 -1.8761 1.4223 -9.54166e-015 7.95139e-016 -0 -1.1471 -3.4929 2.6334 -6.36111e-015 7.95139e-016 -5.96354e-016 -0.823 -2.3 1.6571 -3.18055e-015 3.97569e-016 2.28602e-015 -2.2603 21.606 7.4023 0.224641 -14.6336 33.2208 -13.5187 -1.1334 -5.0155 -95.7448 -10.6625 -10.516 0.0994 -28.0499 -0.2431 -34.7194 -42.637 -20.8561 -0.0679 -23.3996 -0.1402 -14.114 1.0325 -11.6422 -0.7932 -9.0691 2.5189 3.18055e-015 -7.95139e-016 -2.98177e-015 0.8272 -3.3923 0.5977 3.18055e-015 -1.19271e-015 -9.93923e-016 0.565 -2.3158 0.4082 3.18055e-015 -1.19271e-015 -2.5842e-015 -0.916 -9.2044 0.2193 3.18055e-015 -7.95139e-016 -2.98177e-015 -0.0117 -4.1944 -0.0248 0.012939 0.00231522 -9.68702e-005 -0.0071 -2.3249 -0.0142 -6.36111e-015 -3.97569e-016 -3.97569e-016 -0.6113 -8.7231 -2.0637 3.18055e-015 -7.95139e-016 -2.98177e-015 0.1927 -3.8059 -0.2383 0.0164056 0.0030635 -0.000883813 0.1091 -2.1688 -0.1362 3.18055e-015 0 -1.19271e-015 0.6151 -8.0947 -3.564 3.18055e-015 -7.95139e-016 -2.98177e-015 0.4882 -2.341 -0.6462 0.014625 0.00369975 -0.00328745 0.3574 -1.7166 -0.4742 6.36111e-015 -1.806e-006 -2.5842e-015 1.4199 -1.8761 1.4221 3.18055e-015 -7.95139e-016 -2.98177e-015 1.1472 -3.4929 2.6336 3.18055e-015 -1.19271e-015 -9.93923e-016 0.8229 -2.3 1.6571 3.18055e-015 -1.19271e-015 -2.5842e-015 -9.412 3.9771 -0.7758 -98.3882 -31.626 -104.002 -0.7531 -40.938 0 -74.7789 81.6757 84.1126 3.55271e-015 -40.1986 0 -39.2233 25.3773 65.7987 0 -4.4182 9.239 3.95241e-006 -4.64812e-006 -1.38746e-006 9.4119 3.9773 -0.7758 98.3971 -31.9427 103.741 0.7532 -40.9383 7.10543e-015 74.7014 81.7155 -84.0474 -3.55271e-015 -40.1986 0 38.8234 25.5345 -65.5358 0 -4.4182 9.239 -2.1991e-006 7.25635e-006 1.76494e-007 
-6.94969 13.132 37.4175 180 84.0016 -180 0 8.7983 -4.7612 -0.125685 -2.16168 -0.41757 8.88178e-016 8.0291 0.4195 -0.267431 -4.32243 -0.840787 0 9.9351 -2.2114 -0.267431 -4.32241 -0.840785 0 22.3885 -0.4656 -2.03348e-005 -35.9524 -2.50209e-005 -0.0001 12.643 3.4389 -7.17552e-007 -15.0017 -2.02905e-007 2.2603 21.606 7.4023 -1.03113 -13.6507 -38.817 13.5163 -1.1332 -5.0146 95.1436 -5.92786 9.64917 -0.0995 -28.05 -0.2431 41.0659 -40.9021 24.1923 0.0679 -23.3996 -0.1402 14.0685 -0.931044 11.5097 0.7932 -9.069 2.5189 9.54166e-015 1.19271e-015 -1.98785e-016 -0.8272 -3.3923 0.5977 6.36111e-015 0 1.39149e-015 -0.5649 -2.3158 0.4082 9.54166e-015 0 1.49089e-015 0.9159 -9.2044 0.2193 9.54166e-015 1.19271e-015 -1.98785e-016 0.0117 -4.1944 -0.0248 -0.0128361 0.00231499 9.15054e-005 0.0071 -2.3249 -0.0142 -6.36111e-015 -7.95139e-016 -4.27387e-015 0.6113 -8.7231 -2.0637 9.54166e-015 1.19271e-015 -1.98785e-016 -0.1927 -3.8059 -0.2383 -0.0160341 0.0029809 0.000852396 -0.1091 -2.1688 -0.1362 0 7.95139e-016 -0 -0.6151 -8.0947 -3.5641 9.54166e-015 1.19271e-015 -1.98785e-016 -0.4882 -2.341 -0.6462 -0.0125683 0.00311386 0.00282594 -0.3575 -1.7167 -0.4742 -3.18055e-015 -1.19271e-015 -2.48481e-015 -1.42 -1.8761 1.4223 9.54166e-015 1.19271e-015 -1.98785e-016 -1.1471 -3.4929 2.6334 6.36111e-015 0 1.39149e-015 -0.823 -2.3 1.6571 9.54166e-015 0 1.49089e-015 -2.2603 21.606 7.4023 0.509174 -14.2954 33.1504 -13.5187 -1.1334 -5.0155 -95.749 -10.6861 -10.5155 0.0994 -28.0499 -0.2431 -34.9383 -42.8096 -21.0052 -0.0679 -23.3996 -0.1402 -13.8672 1.02689 -11.4529 -0.7932 -9.0691 2.5189 3.18055e-015 -3.97569e-016 -2.18663e-015 0.8272 -3.3923 0.5977 4.13804e-032 1.19271e-015 -1.98785e-015 0.565 -2.3158 0.4082 3.18055e-015 7.95139e-016 -1.39149e-015 -0.916 -9.2044 0.2193 3.18055e-015 -3.97569e-016 -2.18663e-015 -0.0117 -4.1944 -0.0248 0.0128924 0.00229398 -6.84164e-005 -0.0071 -2.3249 -0.0142 3.18055e-015 0 -0 -0.6113 -8.7231 -2.0637 3.18055e-015 -3.97569e-016 -2.18663e-015 0.1927 -3.8059 -0.2383 0.0163261 0.0030205 -0.000859894 0.1091 -2.1688 -0.1362 -6.36111e-015 1.19271e-015 -5.96354e-016 0.6151 -8.0947 -3.564 3.18055e-015 -3.97569e-016 -2.18663e-015 0.4882 -2.341 -0.6462 0.0146507 0.00369157 -0.00327566 0.3574 -1.7166 -0.4742 3.18055e-015 -3.97569e-016 -1.39149e-015 1.4199 -1.8761 1.4221 3.18055e-015 -3.97569e-016 -2.18663e-015 1.1472 -3.4929 2.6336 4.13804e-032 1.19271e-015 -1.98785e-015 0.8229 -2.3 1.6571 3.18055e-015 7.95139e-016 -1.39149e-015 -9.412 3.9771 -0.7758 -98.784 -32.0819 -104.232 -0.7531 -40.938 0 -74.9862 81.6837 84.3169 0 -40.1986 7.10543e-015 -38.6324 25.7249 65.3531 7.10543e-015 -4.4182 9.239 -2.70385e-009 -4.15757e-008 6.0341e-007 9.4119 3.9773 -0.7758 98.7941 -32.3831 103.986 0.7532 -40.9383 0 74.9101 81.7236 -84.2532 0 -40.1986 0 38.2511 25.8728 -65.1027 7.10543e-015 -4.4182 9.239 -8.90707e-007 2.35723e-006 -1.516e-006 
-6.94965 13.2895 37.3968 -180 83.5004 180 8.88179e-016 8.7983 -4.7612 -0.124303 -2.36602 -0.418627 8.88179e-016 8.0291 0.4195 -0.26626 -4.73105 -0.843472 8.88178e-016 9.9351 -2.2114 -0.26626 -4.73106 -0.843473 1.77636e-015 22.3885 -0.4656 -6.48615e-006 -35.6771 -7.9193e-006 -0.0001 12.643 3.4389 1.06366e-006 -15.0017 2.17647e-007 2.2603 21.606 7.4023 -1.30269 -13.3348 -38.77 13.5163 -1.1332 -5.0146 95.1436 -5.92785 9.64917 -0.0995 -28.05 -0.2431 41.3005 -41.0613 24.3435 0.0679 -23.3996 -0.1402 13.7975 -0.917291 11.3249 0.7932 -9.069 2.5189 2.6458e-006 1.93461e-006 -7.32414e-007 -0.8272 -3.3923 0.5977 3.18055e-015 1.59028e-015 3.27995e-015 -0.5649 -2.3158 0.4082 6.36111e-015 0 2.68359e-015 0.9159 -9.2044 0.2193 2.6458e-006 1.93461e-006 -7.32414e-007 0.0117 -4.1944 -0.0248 -0.0128377 0.00232282 8.24025e-005 0.0071 -2.3249 -0.0142 8.06917e-032 1.19271e-015 -3.8763e-015 0.6113 -8.7231 -2.0637 2.6458e-006 1.93461e-006 -7.32414e-007 -0.1927 -3.8059 -0.2383 -0.0160101 0.00299477 0.000853384 -0.1091 -2.1688 -0.1362 -6.36111e-015 -3.97569e-015 1.0635e-014 -0.6151 -8.0947 -3.5641 2.6458e-006 1.93461e-006 -7.32414e-007 -0.4882 -2.341 -0.6462 -0.0125789 0.0031227 0.00282517 -0.3575 -1.7167 -0.4742 -3.25743e-006 -2.47338e-008 -1.17051e-007 -1.42 -1.8761 1.4223 2.6458e-006 1.93461e-006 -7.32414e-007 -1.1471 -3.4929 2.6334 3.18055e-015 1.59028e-015 3.27995e-015 -0.823 -2.3 1.6571 6.36111e-015 0 2.68359e-015 -2.2603 21.606 7.4023 0.793715 -13.9573 33.0784 -13.5187 -1.1334 -5.0155 -95.756 -10.7083 -10.5154 0.0994 -28.0499 -0.2431 -35.156 -42.9825 -21.1563 -0.0679 -23.3996 -0.1402 -13.6204 1.0221 -11.2636 -0.7932 -9.0691 2.5189 3.18055e-015 1.39149e-014 -5.96354e-016 0.8272 -3.3923 0.5977 3.18055e-015 1.43125e-014 9.93923e-016 0.565 -2.3158 0.4082 -3.18055e-015 1.39149e-014 -9.93923e-016 -0.916 -9.2044 0.2193 3.18055e-015 1.39149e-014 -5.96354e-016 -0.0117 -4.1944 -0.0248 0.012914 0.00230058 -9.03872e-005 -0.0071 -2.3249 -0.0142 6.36111e-015 -1.98785e-015 1.98785e-016 -0.6113 -8.7231 -2.0637 3.18055e-015 1.39149e-014 -5.96354e-016 0.1927 -3.8059 -0.2383 0.0163982 0.00305023 -0.000880059 0.1091 -2.1688 -0.1362 -3.18055e-015 0 -0 0.6151 -8.0947 -3.564 3.18055e-015 1.39149e-014 -5.96354e-016 0.4882 -2.341 -0.6462 0.0145376 0.00366848 -0.00325535 0.3574 -1.7166 -0.4742 -6.93884e-007 -1.75214e-007 -1.16819e-006 1.4199 -1.8761 1.4221 3.18055e-015 1.39149e-014 -5.96354e-016 1.1472 -3.4929 2.6336 3.18055e-015 1.43125e-014 9.93923e-016 0.8229 -2.3 1.6571 -3.18055e-015 1.39149e-014 -9.93923e-016 -9.412 3.9771 -0.7758 -99.1845 -32.537 -104.468 -0.7531 -40.938 0 -75.1968 81.6918 84.5246 7.10543e-015 -40.1986 -7.10543e-015 -38.0366 26.0684 64.9019 -7.10543e-015 -4.4182 9.239 1.08565e-006 -7.25919e-006 -7.05192e-007 9.4119 3.9773 -0.7758 99.1958 -32.8228 104.235 0.7532 -40.9383 0 75.1229 81.7317 -84.463 3.55271e-015 -40.1986 0 37.6742 26.2069 -64.6643 7.10543e-015 -4.4182 9.239 2.975e-007 6.75869e-008 3.04423e-007 
-6.94961 13.4472 37.3766 -180 82.9993 180 0 8.7983 -4.7612 -0.122914 -2.57012 -0.419646 -8.88179e-016 8.0291 0.4195 -0.265089 -5.13926 -0.846091 8.88179e-016 9.9351 -2.2114 -0.26509 -5.13924 -0.846092 0 22.3885 -0.4656 -4.74641e-006 -35.4019 -6.00109e-006 -0.0001 12.643 3.4389 2.68692e-008 -15.0017 -2.54481e-007 2.2603 21.606 7.4023 -1.57416 -13.0193 -38.7216 13.5163 -1.1332 -5.0146 95.1437 -5.92781 9.64918 -0.0995 -28.05 -0.2431 41.5362 -41.2201 24.4959 0.0679 -23.3996 -0.1402 13.5265 -0.902673 11.1403 0.7932 -9.069 2.5189 3.18055e-015 1.19271e-015 1.09332e-015 -0.8272 -3.3923 0.5977 3.18055e-015 7.95139e-016 4.96962e-016 -0.5649 -2.3158 0.4082 3.18055e-015 1.98785e-015 -4.67144e-015 0.9159 -9.2044 0.2193 3.18055e-015 1.19271e-015 1.09332e-015 0.0117 -4.1944 -0.0248 -0.0128159 0.00233496 9.41175e-005 0.0071 -2.3249 -0.0142 2.06902e-033 1.19271e-015 -9.93923e-017 0.6113 -8.7231 -2.0637 3.18055e-015 1.19271e-015 1.09332e-015 -0.1927 -3.8059 -0.2383 -0.016038 0.00300442 0.000868333 -0.1091 -2.1688 -0.1362 -3.18055e-015 1.19271e-015 -2.48481e-015 -0.6151 -8.0947 -3.5641 3.18055e-015 1.19271e-015 1.09332e-015 -0.4882 -2.341 -0.6462 -0.0126009 0.00312866 0.00283895 -0.3575 -1.7167 -0.4742 4.13804e-033 -7.95139e-016 2.98177e-016 -1.42 -1.8761 1.4223 3.18055e-015 1.19271e-015 1.09332e-015 -1.1471 -3.4929 2.6334 3.18055e-015 7.95139e-016 4.96962e-016 -0.823 -2.3 1.6571 3.18055e-015 1.98785e-015 -4.67144e-015 -2.2603 21.606 7.4023 1.07824 -13.6196 33.0048 -13.5187 -1.1334 -5.0155 -95.7623 -10.7308 -10.5153 0.0994 -28.0499 -0.2431 -35.3755 -43.1547 -21.3086 -0.0679 -23.3996 -0.1402 -13.3736 1.01816 -11.0743 -0.7932 -9.0691 2.5189 1.10348e-032 -3.97569e-016 1.59028e-015 0.8272 -3.3923 0.5977 3.18055e-015 -3.97569e-016 1.59028e-015 0.565 -2.3158 0.4082 1.24141e-032 -3.97569e-016 1.78906e-015 -0.916 -9.2044 0.2193 1.10348e-032 -3.97569e-016 1.59028e-015 -0.0117 -4.1944 -0.0248 0.0129592 0.00231447 -8.33133e-005 -0.0071 -2.3249 -0.0142 -6.36111e-015 7.95139e-016 2.5842e-015 -0.6113 -8.7231 -2.0637 1.10348e-032 -3.97569e-016 1.59028e-015 0.1927 -3.8059 -0.2383 0.0163532 0.0030431 -0.000879687 0.1091 -2.1688 -0.1362 -9.54166e-015 3.97569e-016 -7.95139e-016 0.6151 -8.0947 -3.564 1.10348e-032 -3.97569e-016 1.59028e-015 0.4882 -2.341 -0.6462 0.0145678 0.00368387 -0.0032627 0.3574 -1.7166 -0.4742 6.89673e-033 -3.97569e-016 9.93923e-016 1.4199 -1.8761 1.4221 1.10348e-032 -3.97569e-016 1.59028e-015 1.1472 -3.4929 2.6336 3.18055e-015 -3.97569e-016 1.59028e-015 0.8229 -2.3 1.6571 1.24141e-032 -3.97569e-016 1.78906e-015 -9.412 3.9771 -0.7758 -99.5897 -32.9914 -104.709 -0.7531 -40.938 0 -75.4108 81.6998 84.7358 -7.10543e-015 -40.1986 7.10543e-015 -37.4359 26.4074 64.4451 0 -4.4182 9.239 7.95139e-016 -6.36111e-015 1.59028e-015 9.4119 3.9773 -0.7758 99.6022 -33.2615 104.49 0.7532 -40.9383 -7.10543e-015 75.3386 81.7398 -84.6758 -3.55271e-015 -40.1986 -7.10543e-015 37.0927 26.5371 -64.2206 7.10543e-015 -4.4182 9.239 7.75472e-007 4.8526e-006 7.90282e-007 
